<?xml version="1.0" standalone="no"?>
<!DOCTYPE svg PUBLIC "-//W3C//DTD SVG 20010904//EN"
 "http://www.w3.org/TR/2001/REC-SVG-20010904/DTD/svg10.dtd">
<svg version="1.0" xmlns="http://www.w3.org/2000/svg"
 width="700.000000pt" height="700.000000pt" viewBox="0 0 700.000000 700.000000"
 preserveAspectRatio="xMidYMid meet">
<metadata>
Created by potrace 1.11, written by Peter Selinger 2001-2013
</metadata>
<g transform="translate(0.000000,700.000000) scale(0.100000,-0.100000)"
fill="#000000" stroke="none">
<path d="M3300 5494 c-425 -29 -777 -105 -1143 -245 -807 -311 -1507 -872
-1994 -1599 -152 -228 -188 -354 -147 -513 28 -108 118 -259 292 -492 571
-760 1441 -1335 2337 -1544 301 -70 522 -95 855 -95 411 0 727 46 1098 161
819 252 1595 800 2099 1483 175 238 260 381 287 487 41 159 5 285 -147 513
-331 495 -755 908 -1252 1223 -533 338 -1078 534 -1670 602 -128 15 -507 26
-615 19z m252 -564 c136 -38 180 -210 79 -311 -41 -41 -91 -59 -169 -59 -29 0
-88 -7 -130 -16 -150 -31 -261 -89 -379 -198 -167 -155 -244 -316 -262 -549
-9 -113 -23 -150 -71 -191 -104 -87 -265 -36 -301 96 -13 48 2 235 27 333 43
173 129 338 248 477 205 240 476 386 771 417 116 12 146 12 187 1z m-1574
-317 c-65 -128 -113 -237 -138 -310 -105 -314 -117 -664 -34 -994 74 -300 224
-556 460 -793 237 -236 493 -385 793 -460 158 -40 246 -50 441 -50 249 0 423
30 627 108 342 130 653 390 866 723 308 481 340 1146 81 1672 -29 58 -51 107
-50 109 2 1 56 -27 121 -64 489 -273 928 -683 1278 -1192 l78 -112 -68 -98
c-503 -728 -1212 -1272 -1952 -1501 -346 -107 -606 -145 -981 -145 -229 0
-361 9 -545 40 -916 149 -1785 734 -2388 1606 l-68 98 78 112 c150 219 265
359 453 552 255 262 519 467 821 639 112 64 134 75 127 60z"/>
</g>
</svg>
